<?xml version="1.0" standalone="no"?>
<!DOCTYPE svg PUBLIC "-//W3C//DTD SVG 20010904//EN"
 "http://www.w3.org/TR/2001/REC-SVG-20010904/DTD/svg10.dtd">
<svg version="1.0" xmlns="http://www.w3.org/2000/svg"
 width="207.000000pt" height="207.000000pt" viewBox="0 0 207.000000 207.000000"
 preserveAspectRatio="xMidYMid meet">
<metadata>
Created by potrace 1.11, written by Peter Selinger 2001-2013
</metadata>
<g transform="translate(0.000000,207.000000) scale(0.100000,-0.100000)"
fill="#000000" stroke="none">
<path d="M894 1515 c-4 -8 -10 -12 -15 -9 -5 3 -9 0 -9 -5 0 -6 -6 -11 -12
-11 -21 -1 -225 -189 -220 -203 1 -5 -2 -6 -7 -3 -5 4 -26 -8 -46 -25 -30 -27
-34 -34 -23 -48 12 -14 11 -15 -5 -2 -15 12 -20 12 -36 -5 -43 -45 -77 -67
-115 -76 -50 -11 -73 -31 -81 -69 -4 -19 -30 -49 -73 -86 -132 -115 -221 -220
-206 -245 4 -6 3 -8 -3 -5 -13 8 -33 -59 -32 -104 1 -64 10 -73 72 -74 37 -1
54 2 50 9 -3 6 0 5 8 -1 17 -17 43 -17 33 0 -5 7 -1 7 10 -2 15 -13 19 -13 27
0 5 9 9 10 9 2 0 -14 39 -14 58 0 6 5 12 6 12 1 0 -11 190 -12 206 -2 6 4 14
4 18 1 9 -10 147 -10 152 -1 3 5 11 5 17 1 21 -13 61 -10 75 6 10 14 11 14 7
1 -4 -13 12 -15 110 -15 63 0 115 4 115 8 0 5 6 5 13 0 19 -12 77 -11 77 1 0
6 4 5 9 -2 4 -8 12 -14 16 -14 4 0 12 6 16 14 6 8 9 9 9 1 0 -12 17 -12 37 0
6 4 15 3 18 -3 5 -8 12 -7 23 2 9 7 13 9 10 3 -7 -11 110 -14 128 -3 6 4 14 4
18 1 11 -11 179 -10 194 0 6 5 12 6 12 1 0 -13 213 -12 222 1 5 7 8 6 8 -2 0
-12 17 -12 38 0 6 5 12 4 12 -2 0 -10 18 -10 37 2 6 4 14 3 17 -2 7 -10 25 -9
42 2 6 3 14 3 18 -1 14 -14 61 -7 79 11 29 29 25 124 -9 193 -26 54 -27 57
-14 122 11 61 11 71 -6 107 -21 43 -40 51 -139 61 -33 3 -63 8 -67 10 -4 2
-24 7 -46 10 -39 5 -64 -7 -74 -37 -3 -9 -12 -9 -33 -2 -26 8 -30 15 -33 49
-4 40 -16 56 -38 47 -7 -3 -10 -16 -7 -34 5 -37 -23 -41 -37 -5 -12 32 -36 43
-85 40 -44 -2 -104 20 -178 68 -26 17 -105 94 -174 172 -70 77 -134 146 -143
153 -21 17 -59 16 -66 -2z m246 -839 c0 -2 -8 -10 -17 -17 -16 -13 -17 -12 -4
4 13 16 21 21 21 13z m-295 -45 c3 -5 2 -12 -3 -15 -5 -3 -9 1 -9 9 0 17 3 19
12 6z m815 5 c0 -2 -8 -10 -17 -17 -16 -13 -17 -12 -4 4 13 16 21 21 21 13z"/>
<path d="M2040 549 c0 -5 5 -7 10 -4 6 3 10 8 10 11 0 2 -4 4 -10 4 -5 0 -10
-5 -10 -11z"/>
</g>
</svg>
